# xmcd
#
# Track frame offsets:
#	180
#	13667
#	25370
#	37632
#	53689
#	69416
#	84790
#	97766
#	110105
#	123835
#	136032
#	150385
#	162575
#	173638
#
# Disc length: 2527 seconds
#
# Revision: 1
# Processed by: cddbd v1.5.2PL0 Copyright (c) Steve Scherf et al.
# Submitted via: audiograbber 1.83.01
#
DISCID=9909dd0e
DTITLE=Sweet Roses of Alabama - Queen of Country - Vol 1
DYEAR=1900
DGENRE=Country
TTITLE0=I will always love you
TTITLE1=That'll be the day
TTITLE2=Stand by your man
TTITLE3=Save the last dance for me
TTITLE4=I'm the singer you're the song
TTITLE5=One promise too late
TTITLE6=Rose garden
TTITLE7=Don't it make my brown eye blue
TTITLE8=Coal miner's daughter
TTITLE9=Rockin' with the rythm of the rain
TTITLE10=If your loving is wrong
TTITLE11=Blue Kentucky girl
TTITLE12=Happiest girl in the whole USA
TTITLE13=Angie baby
EXTD=
EXTT0=
EXTT1=
EXTT2=
EXTT3=
EXTT4=
EXTT5=
EXTT6=
EXTT7=
EXTT8=
EXTT9=
EXTT10=
EXTT11=
EXTT12=
EXTT13=
PLAYORDER=
